<mxfile modified="2023-12-06T17:25:32.338Z" host="app.diagrams.net" agent="Mozilla/5.0 (Macintosh; Intel Mac OS X 10_15_7) AppleWebKit/605.1.15 (KHTML, like Gecko) Version/17.1.2 Safari/605.1.15" etag="bjNs17A5VUwV0aMO9e04" version="22.1.7" type="github">
  <diagram id="Ht1M8jgEwFfnCIfOTk4-" name="Page-1">
    <mxGraphModel dx="1949" dy="1103" grid="1" gridSize="10" guides="1" tooltips="1" connect="1" arrows="1" fold="1" page="1" pageScale="1" pageWidth="1169" pageHeight="827" math="0" shadow="0">
      <root>
        <mxCell id="0" />
        <mxCell id="1" parent="0" />
        <mxCell id="99I_oRyhk_x6yAJ0Ye9t-51" value="Availability Zone" style="fillColor=none;strokeColor=#147EBA;dashed=1;verticalAlign=top;fontStyle=0;fontColor=#147EBA;whiteSpace=wrap;html=1;" vertex="1" parent="1">
          <mxGeometry x="290" y="724" width="640" height="480" as="geometry" />
        </mxCell>
        <mxCell id="wruG9pDz-TTGHJWA2XI3-12" value="VPC" style="sketch=0;outlineConnect=0;gradientColor=none;html=1;whiteSpace=wrap;fontSize=12;fontStyle=0;shape=mxgraph.aws4.group;grIcon=mxgraph.aws4.group_vpc;strokeColor=#879196;fillColor=none;verticalAlign=top;align=left;spacingLeft=30;fontColor=#879196;dashed=0;movable=1;resizable=1;rotatable=1;deletable=1;editable=1;locked=0;connectable=1;" parent="1" vertex="1">
          <mxGeometry x="80" y="185.5" width="1160" height="1034.5" as="geometry" />
        </mxCell>
        <mxCell id="wruG9pDz-TTGHJWA2XI3-11" value="AWS Cloud" style="sketch=0;outlineConnect=0;gradientColor=none;html=1;whiteSpace=wrap;fontSize=12;fontStyle=0;shape=mxgraph.aws4.group;grIcon=mxgraph.aws4.group_aws_cloud;strokeColor=#AAB7B8;fillColor=none;verticalAlign=top;align=left;spacingLeft=30;fontColor=#AAB7B8;dashed=0;movable=0;resizable=0;rotatable=0;deletable=0;editable=0;locked=1;connectable=0;" parent="1" vertex="1">
          <mxGeometry x="52.5" y="160" width="1217.5" height="1090" as="geometry" />
        </mxCell>
        <mxCell id="wruG9pDz-TTGHJWA2XI3-32" value="alb-security group" style="fontStyle=0;verticalAlign=top;align=center;spacingTop=-2;fillColor=none;rounded=0;whiteSpace=wrap;html=1;strokeColor=#FF0000;strokeWidth=2;dashed=1;container=1;collapsible=0;expand=0;recursiveResize=0;" parent="1" vertex="1">
          <mxGeometry x="90" y="404.5" width="140" height="125.5" as="geometry" />
        </mxCell>
        <mxCell id="wruG9pDz-TTGHJWA2XI3-5" value="Application Load Balancer&lt;br&gt;" style="outlineConnect=0;dashed=0;verticalLabelPosition=bottom;verticalAlign=top;align=center;html=1;shape=mxgraph.aws3.application_load_balancer;fillColor=#F58534;gradientColor=none;" parent="wruG9pDz-TTGHJWA2XI3-32" vertex="1">
          <mxGeometry x="38" y="24" width="69" height="72" as="geometry" />
        </mxCell>
        <mxCell id="wruG9pDz-TTGHJWA2XI3-33" value="Private subnet for database" style="points=[[0,0],[0.25,0],[0.5,0],[0.75,0],[1,0],[1,0.25],[1,0.5],[1,0.75],[1,1],[0.75,1],[0.5,1],[0.25,1],[0,1],[0,0.75],[0,0.5],[0,0.25]];outlineConnect=0;gradientColor=none;html=1;whiteSpace=wrap;fontSize=12;fontStyle=0;container=1;pointerEvents=0;collapsible=0;recursiveResize=0;shape=mxgraph.aws4.group;grIcon=mxgraph.aws4.group_security_group;grStroke=0;strokeColor=#00A4A6;fillColor=#E6F6F7;verticalAlign=top;align=left;spacingLeft=30;fontColor=#147EBA;dashed=0;" parent="1" vertex="1">
          <mxGeometry x="990" y="207.5" width="225" height="237" as="geometry" />
        </mxCell>
        <mxCell id="-QjtrjUzRDEMRZ5MF8oH-47" value="Infrastructure Diagram - For 1 Region" style="text;html=1;resizable=0;points=[];autosize=1;align=left;verticalAlign=top;spacingTop=-4;fontSize=30;fontStyle=1" parent="1" vertex="1">
          <mxGeometry x="56.5" y="64.5" width="560" height="40" as="geometry" />
        </mxCell>
        <mxCell id="-QjtrjUzRDEMRZ5MF8oH-48" value="This is the infrastructure for one region. This infrastructure would be deployed globally across multiple regions" style="text;html=1;resizable=0;points=[];autosize=1;align=left;verticalAlign=top;spacingTop=-4;fontSize=16;" parent="1" vertex="1">
          <mxGeometry x="56.5" y="114.5" width="800" height="30" as="geometry" />
        </mxCell>
        <mxCell id="SCVMTBWpLvtzJIhz15lM-1" value="" style="line;strokeWidth=2;html=1;fontSize=14;" parent="1" vertex="1">
          <mxGeometry x="52.5" y="139.5" width="1060" height="10" as="geometry" />
        </mxCell>
        <mxCell id="wruG9pDz-TTGHJWA2XI3-8" value="Amazon Elastic Container Registry" style="sketch=0;points=[[0,0,0],[0.25,0,0],[0.5,0,0],[0.75,0,0],[1,0,0],[0,1,0],[0.25,1,0],[0.5,1,0],[0.75,1,0],[1,1,0],[0,0.25,0],[0,0.5,0],[0,0.75,0],[1,0.25,0],[1,0.5,0],[1,0.75,0]];outlineConnect=0;fontColor=#232F3E;fillColor=#ED7100;strokeColor=#ffffff;dashed=0;verticalLabelPosition=bottom;verticalAlign=top;align=center;html=1;fontSize=12;fontStyle=0;aspect=fixed;shape=mxgraph.aws4.resourceIcon;resIcon=mxgraph.aws4.ecs;" parent="1" vertex="1">
          <mxGeometry x="1060" y="568" width="78" height="78" as="geometry" />
        </mxCell>
        <mxCell id="wruG9pDz-TTGHJWA2XI3-23" value="Generic group" style="fillColor=none;strokeColor=#5A6C86;dashed=1;verticalAlign=top;fontStyle=0;fontColor=#5A6C86;whiteSpace=wrap;html=1;" parent="1" vertex="1">
          <mxGeometry x="70" y="1260" width="130" height="130" as="geometry" />
        </mxCell>
        <mxCell id="wruG9pDz-TTGHJWA2XI3-34" value="database-securitygroup" style="fontStyle=0;verticalAlign=top;align=center;spacingTop=-2;fillColor=none;rounded=0;whiteSpace=wrap;html=1;strokeColor=#FF0000;strokeWidth=2;dashed=1;container=1;collapsible=0;expand=0;recursiveResize=0;" parent="1" vertex="1">
          <mxGeometry x="1017.5" y="248" width="170" height="165.5" as="geometry" />
        </mxCell>
        <mxCell id="99I_oRyhk_x6yAJ0Ye9t-1" style="edgeStyle=orthogonalEdgeStyle;rounded=0;orthogonalLoop=1;jettySize=auto;html=1;" edge="1" parent="1" source="wruG9pDz-TTGHJWA2XI3-36" target="wruG9pDz-TTGHJWA2XI3-40">
          <mxGeometry relative="1" as="geometry" />
        </mxCell>
        <mxCell id="wruG9pDz-TTGHJWA2XI3-36" value="S3 Asset Bucket" style="sketch=0;outlineConnect=0;fontColor=#232F3E;gradientColor=none;fillColor=#7AA116;strokeColor=none;dashed=0;verticalLabelPosition=bottom;verticalAlign=top;align=center;html=1;fontSize=12;fontStyle=0;aspect=fixed;pointerEvents=1;shape=mxgraph.aws4.bucket;" parent="1" vertex="1">
          <mxGeometry x="1063" y="460" width="75" height="78" as="geometry" />
        </mxCell>
        <mxCell id="wruG9pDz-TTGHJWA2XI3-38" style="edgeStyle=orthogonalEdgeStyle;rounded=0;orthogonalLoop=1;jettySize=auto;html=1;exitX=1;exitY=0.5;exitDx=0;exitDy=0;entryX=0;entryY=0.5;entryDx=0;entryDy=0;entryPerimeter=0;" parent="1" source="wruG9pDz-TTGHJWA2XI3-9" target="wruG9pDz-TTGHJWA2XI3-8" edge="1">
          <mxGeometry relative="1" as="geometry">
            <Array as="points">
              <mxPoint x="600" y="499" />
              <mxPoint x="970" y="499" />
              <mxPoint x="970" y="607" />
            </Array>
          </mxGeometry>
        </mxCell>
        <mxCell id="wruG9pDz-TTGHJWA2XI3-40" value="" style="sketch=0;points=[[0,0,0],[0.25,0,0],[0.5,0,0],[0.75,0,0],[1,0,0],[0,1,0],[0.25,1,0],[0.5,1,0],[0.75,1,0],[1,1,0],[0,0.25,0],[0,0.5,0],[0,0.75,0],[1,0.25,0],[1,0.5,0],[1,0.75,0]];outlineConnect=0;fontColor=#232F3E;fillColor=#C925D1;strokeColor=#ffffff;dashed=0;verticalLabelPosition=bottom;verticalAlign=top;align=center;html=1;fontSize=12;fontStyle=0;aspect=fixed;shape=mxgraph.aws4.resourceIcon;resIcon=mxgraph.aws4.aurora;" parent="1" vertex="1">
          <mxGeometry x="1045.5" y="280" width="110" height="110" as="geometry" />
        </mxCell>
        <mxCell id="99I_oRyhk_x6yAJ0Ye9t-27" value="" style="group" vertex="1" connectable="0" parent="1">
          <mxGeometry x="310" y="164" width="620" height="500" as="geometry" />
        </mxCell>
        <mxCell id="99I_oRyhk_x6yAJ0Ye9t-14" value="" style="group" vertex="1" connectable="0" parent="99I_oRyhk_x6yAJ0Ye9t-27">
          <mxGeometry y="49.25" width="600" height="430" as="geometry" />
        </mxCell>
        <mxCell id="wruG9pDz-TTGHJWA2XI3-22" value="Public subnet for application" style="points=[[0,0],[0.25,0],[0.5,0],[0.75,0],[1,0],[1,0.25],[1,0.5],[1,0.75],[1,1],[0.75,1],[0.5,1],[0.25,1],[0,1],[0,0.75],[0,0.5],[0,0.25]];outlineConnect=0;gradientColor=none;html=1;whiteSpace=wrap;fontSize=12;fontStyle=0;container=1;pointerEvents=0;collapsible=0;recursiveResize=0;shape=mxgraph.aws4.group;grIcon=mxgraph.aws4.group_security_group;grStroke=0;strokeColor=#7AA116;fillColor=#F2F6E8;verticalAlign=top;align=left;spacingLeft=30;fontColor=#248814;dashed=0;" parent="99I_oRyhk_x6yAJ0Ye9t-14" vertex="1">
          <mxGeometry width="600" height="430" as="geometry" />
        </mxCell>
        <mxCell id="wruG9pDz-TTGHJWA2XI3-20" value="ECS Task + webserver-securitygroup" style="fillColor=none;strokeColor=#DD3522;verticalAlign=top;fontStyle=0;fontColor=#DD3522;whiteSpace=wrap;html=1;" parent="99I_oRyhk_x6yAJ0Ye9t-14" vertex="1">
          <mxGeometry x="49.379999999999995" y="89" width="490.62" height="291" as="geometry" />
        </mxCell>
        <mxCell id="wruG9pDz-TTGHJWA2XI3-19" value="ECS Service + Auto Scaling" style="points=[[0,0],[0.25,0],[0.5,0],[0.75,0],[1,0],[1,0.25],[1,0.5],[1,0.75],[1,1],[0.75,1],[0.5,1],[0.25,1],[0,1],[0,0.75],[0,0.5],[0,0.25]];outlineConnect=0;gradientColor=none;html=1;whiteSpace=wrap;fontSize=12;fontStyle=0;container=1;pointerEvents=0;collapsible=0;recursiveResize=0;shape=mxgraph.aws4.groupCenter;grIcon=mxgraph.aws4.group_auto_scaling_group;grStroke=1;strokeColor=#D86613;fillColor=none;verticalAlign=top;align=center;fontColor=#D86613;dashed=1;spacingTop=25;" parent="99I_oRyhk_x6yAJ0Ye9t-14" vertex="1">
          <mxGeometry x="20" y="35" width="550" height="365" as="geometry" />
        </mxCell>
        <mxCell id="wruG9pDz-TTGHJWA2XI3-15" value="" style="sketch=0;outlineConnect=0;fontColor=#232F3E;gradientColor=none;fillColor=#ED7100;strokeColor=none;dashed=0;verticalLabelPosition=bottom;verticalAlign=top;align=center;html=1;fontSize=12;fontStyle=0;aspect=fixed;pointerEvents=1;shape=mxgraph.aws4.ecs_task;" parent="wruG9pDz-TTGHJWA2XI3-19" vertex="1">
          <mxGeometry x="144.42000000000002" y="57" width="21.58" height="28" as="geometry" />
        </mxCell>
        <mxCell id="wruG9pDz-TTGHJWA2XI3-24" value="AWS Fargate Cluster" style="fillColor=#EFF0F3;strokeColor=none;dashed=0;verticalAlign=top;fontStyle=0;fontColor=#232F3D;whiteSpace=wrap;html=1;" parent="99I_oRyhk_x6yAJ0Ye9t-14" vertex="1">
          <mxGeometry x="97.38" y="126.75" width="370" height="223.25" as="geometry" />
        </mxCell>
        <mxCell id="wruG9pDz-TTGHJWA2XI3-9" value="EC2 Container&lt;br&gt;" style="points=[[0,0],[0.25,0],[0.5,0],[0.75,0],[1,0],[1,0.25],[1,0.5],[1,0.75],[1,1],[0.75,1],[0.5,1],[0.25,1],[0,1],[0,0.75],[0,0.5],[0,0.25]];outlineConnect=0;gradientColor=none;html=1;whiteSpace=wrap;fontSize=12;fontStyle=0;container=1;pointerEvents=0;collapsible=0;recursiveResize=0;shape=mxgraph.aws4.group;grIcon=mxgraph.aws4.group_ec2_instance_contents;strokeColor=#D86613;fillColor=none;verticalAlign=top;align=left;spacingLeft=30;fontColor=#D86613;dashed=0;" parent="99I_oRyhk_x6yAJ0Ye9t-14" vertex="1">
          <mxGeometry x="170" y="184.5" width="170" height="135.5" as="geometry" />
        </mxCell>
        <mxCell id="wruG9pDz-TTGHJWA2XI3-7" value="Django Application" style="shape=image;html=1;verticalAlign=top;verticalLabelPosition=bottom;labelBackgroundColor=#ffffff;imageAspect=0;aspect=fixed;image=https://cdn2.iconfinder.com/data/icons/boxicons-logos/24/bxl-django-128.png" parent="wruG9pDz-TTGHJWA2XI3-9" vertex="1">
          <mxGeometry x="20.25" y="27.5" width="80.5" height="80.5" as="geometry" />
        </mxCell>
        <mxCell id="wruG9pDz-TTGHJWA2XI3-17" value="" style="shape=image;html=1;verticalAlign=top;verticalLabelPosition=bottom;labelBackgroundColor=#ffffff;imageAspect=0;aspect=fixed;image=https://cdn1.iconfinder.com/data/icons/unicons-line-vol-3/24/docker-128.png" parent="99I_oRyhk_x6yAJ0Ye9t-14" vertex="1">
          <mxGeometry x="340" y="184.5" width="90" height="90" as="geometry" />
        </mxCell>
        <mxCell id="wruG9pDz-TTGHJWA2XI3-25" value="" style="sketch=0;points=[[0,0,0],[0.25,0,0],[0.5,0,0],[0.75,0,0],[1,0,0],[0,1,0],[0.25,1,0],[0.5,1,0],[0.75,1,0],[1,1,0],[0,0.25,0],[0,0.5,0],[0,0.75,0],[1,0.25,0],[1,0.5,0],[1,0.75,0]];outlineConnect=0;fontColor=#232F3E;fillColor=#ED7100;strokeColor=#ffffff;dashed=0;verticalLabelPosition=bottom;verticalAlign=top;align=center;html=1;fontSize=12;fontStyle=0;aspect=fixed;shape=mxgraph.aws4.resourceIcon;resIcon=mxgraph.aws4.fargate;" parent="99I_oRyhk_x6yAJ0Ye9t-14" vertex="1">
          <mxGeometry x="179.99999999999994" y="130" width="38" height="38" as="geometry" />
        </mxCell>
        <mxCell id="99I_oRyhk_x6yAJ0Ye9t-39" value="Availability Zone" style="fillColor=none;strokeColor=#147EBA;dashed=1;verticalAlign=top;fontStyle=0;fontColor=#147EBA;whiteSpace=wrap;html=1;" vertex="1" parent="99I_oRyhk_x6yAJ0Ye9t-27">
          <mxGeometry x="-20" y="20" width="640" height="480" as="geometry" />
        </mxCell>
        <mxCell id="wruG9pDz-TTGHJWA2XI3-35" style="edgeStyle=orthogonalEdgeStyle;rounded=0;orthogonalLoop=1;jettySize=auto;html=1;entryX=0;entryY=0.5;entryDx=0;entryDy=0;" parent="1" source="wruG9pDz-TTGHJWA2XI3-5" target="wruG9pDz-TTGHJWA2XI3-9" edge="1">
          <mxGeometry relative="1" as="geometry">
            <Array as="points">
              <mxPoint x="480" y="465" />
            </Array>
          </mxGeometry>
        </mxCell>
        <mxCell id="99I_oRyhk_x6yAJ0Ye9t-2" style="edgeStyle=orthogonalEdgeStyle;rounded=0;orthogonalLoop=1;jettySize=auto;html=1;entryX=0;entryY=0.5;entryDx=0;entryDy=0;entryPerimeter=0;" edge="1" parent="1" source="wruG9pDz-TTGHJWA2XI3-9" target="wruG9pDz-TTGHJWA2XI3-40">
          <mxGeometry relative="1" as="geometry">
            <Array as="points">
              <mxPoint x="970" y="499" />
              <mxPoint x="970" y="335" />
            </Array>
          </mxGeometry>
        </mxCell>
        <mxCell id="99I_oRyhk_x6yAJ0Ye9t-41" value="" style="group" vertex="1" connectable="0" parent="1">
          <mxGeometry x="310" y="753.25" width="600" height="430" as="geometry" />
        </mxCell>
        <mxCell id="99I_oRyhk_x6yAJ0Ye9t-42" value="Public subnet for application" style="points=[[0,0],[0.25,0],[0.5,0],[0.75,0],[1,0],[1,0.25],[1,0.5],[1,0.75],[1,1],[0.75,1],[0.5,1],[0.25,1],[0,1],[0,0.75],[0,0.5],[0,0.25]];outlineConnect=0;gradientColor=none;html=1;whiteSpace=wrap;fontSize=12;fontStyle=0;container=1;pointerEvents=0;collapsible=0;recursiveResize=0;shape=mxgraph.aws4.group;grIcon=mxgraph.aws4.group_security_group;grStroke=0;strokeColor=#7AA116;fillColor=#F2F6E8;verticalAlign=top;align=left;spacingLeft=30;fontColor=#248814;dashed=0;" vertex="1" parent="99I_oRyhk_x6yAJ0Ye9t-41">
          <mxGeometry width="600" height="430" as="geometry" />
        </mxCell>
        <mxCell id="99I_oRyhk_x6yAJ0Ye9t-43" value="ECS Task + webserver-securitygroup" style="fillColor=none;strokeColor=#DD3522;verticalAlign=top;fontStyle=0;fontColor=#DD3522;whiteSpace=wrap;html=1;" vertex="1" parent="99I_oRyhk_x6yAJ0Ye9t-41">
          <mxGeometry x="49.379999999999995" y="89" width="490.62" height="291" as="geometry" />
        </mxCell>
        <mxCell id="99I_oRyhk_x6yAJ0Ye9t-44" value="ECS Service + Auto Scaling" style="points=[[0,0],[0.25,0],[0.5,0],[0.75,0],[1,0],[1,0.25],[1,0.5],[1,0.75],[1,1],[0.75,1],[0.5,1],[0.25,1],[0,1],[0,0.75],[0,0.5],[0,0.25]];outlineConnect=0;gradientColor=none;html=1;whiteSpace=wrap;fontSize=12;fontStyle=0;container=1;pointerEvents=0;collapsible=0;recursiveResize=0;shape=mxgraph.aws4.groupCenter;grIcon=mxgraph.aws4.group_auto_scaling_group;grStroke=1;strokeColor=#D86613;fillColor=none;verticalAlign=top;align=center;fontColor=#D86613;dashed=1;spacingTop=25;" vertex="1" parent="99I_oRyhk_x6yAJ0Ye9t-41">
          <mxGeometry x="20" y="35" width="550" height="365" as="geometry" />
        </mxCell>
        <mxCell id="99I_oRyhk_x6yAJ0Ye9t-45" value="" style="sketch=0;outlineConnect=0;fontColor=#232F3E;gradientColor=none;fillColor=#ED7100;strokeColor=none;dashed=0;verticalLabelPosition=bottom;verticalAlign=top;align=center;html=1;fontSize=12;fontStyle=0;aspect=fixed;pointerEvents=1;shape=mxgraph.aws4.ecs_task;" vertex="1" parent="99I_oRyhk_x6yAJ0Ye9t-44">
          <mxGeometry x="144.42000000000002" y="57" width="21.58" height="28" as="geometry" />
        </mxCell>
        <mxCell id="99I_oRyhk_x6yAJ0Ye9t-46" value="AWS Fargate Cluster" style="fillColor=#EFF0F3;strokeColor=none;dashed=0;verticalAlign=top;fontStyle=0;fontColor=#232F3D;whiteSpace=wrap;html=1;" vertex="1" parent="99I_oRyhk_x6yAJ0Ye9t-41">
          <mxGeometry x="97.38" y="126.75" width="370" height="223.25" as="geometry" />
        </mxCell>
        <mxCell id="99I_oRyhk_x6yAJ0Ye9t-47" value="EC2 Container&lt;br&gt;" style="points=[[0,0],[0.25,0],[0.5,0],[0.75,0],[1,0],[1,0.25],[1,0.5],[1,0.75],[1,1],[0.75,1],[0.5,1],[0.25,1],[0,1],[0,0.75],[0,0.5],[0,0.25]];outlineConnect=0;gradientColor=none;html=1;whiteSpace=wrap;fontSize=12;fontStyle=0;container=1;pointerEvents=0;collapsible=0;recursiveResize=0;shape=mxgraph.aws4.group;grIcon=mxgraph.aws4.group_ec2_instance_contents;strokeColor=#D86613;fillColor=none;verticalAlign=top;align=left;spacingLeft=30;fontColor=#D86613;dashed=0;" vertex="1" parent="99I_oRyhk_x6yAJ0Ye9t-41">
          <mxGeometry x="170" y="184.5" width="170" height="135.5" as="geometry" />
        </mxCell>
        <mxCell id="99I_oRyhk_x6yAJ0Ye9t-48" value="Django Application" style="shape=image;html=1;verticalAlign=top;verticalLabelPosition=bottom;labelBackgroundColor=#ffffff;imageAspect=0;aspect=fixed;image=https://cdn2.iconfinder.com/data/icons/boxicons-logos/24/bxl-django-128.png" vertex="1" parent="99I_oRyhk_x6yAJ0Ye9t-47">
          <mxGeometry x="20.25" y="27.5" width="80.5" height="80.5" as="geometry" />
        </mxCell>
        <mxCell id="99I_oRyhk_x6yAJ0Ye9t-49" value="" style="shape=image;html=1;verticalAlign=top;verticalLabelPosition=bottom;labelBackgroundColor=#ffffff;imageAspect=0;aspect=fixed;image=https://cdn1.iconfinder.com/data/icons/unicons-line-vol-3/24/docker-128.png" vertex="1" parent="99I_oRyhk_x6yAJ0Ye9t-41">
          <mxGeometry x="340" y="184.5" width="90" height="90" as="geometry" />
        </mxCell>
        <mxCell id="99I_oRyhk_x6yAJ0Ye9t-50" value="" style="sketch=0;points=[[0,0,0],[0.25,0,0],[0.5,0,0],[0.75,0,0],[1,0,0],[0,1,0],[0.25,1,0],[0.5,1,0],[0.75,1,0],[1,1,0],[0,0.25,0],[0,0.5,0],[0,0.75,0],[1,0.25,0],[1,0.5,0],[1,0.75,0]];outlineConnect=0;fontColor=#232F3E;fillColor=#ED7100;strokeColor=#ffffff;dashed=0;verticalLabelPosition=bottom;verticalAlign=top;align=center;html=1;fontSize=12;fontStyle=0;aspect=fixed;shape=mxgraph.aws4.resourceIcon;resIcon=mxgraph.aws4.fargate;" vertex="1" parent="99I_oRyhk_x6yAJ0Ye9t-41">
          <mxGeometry x="179.99999999999994" y="130" width="38" height="38" as="geometry" />
        </mxCell>
        <mxCell id="99I_oRyhk_x6yAJ0Ye9t-52" style="edgeStyle=orthogonalEdgeStyle;rounded=0;orthogonalLoop=1;jettySize=auto;html=1;exitX=0.5;exitY=1;exitDx=0;exitDy=0;exitPerimeter=0;entryX=0;entryY=0.5;entryDx=0;entryDy=0;" edge="1" parent="1" source="wruG9pDz-TTGHJWA2XI3-5" target="99I_oRyhk_x6yAJ0Ye9t-47">
          <mxGeometry relative="1" as="geometry" />
        </mxCell>
        <mxCell id="99I_oRyhk_x6yAJ0Ye9t-53" style="edgeStyle=orthogonalEdgeStyle;rounded=0;orthogonalLoop=1;jettySize=auto;html=1;exitX=1;exitY=0.75;exitDx=0;exitDy=0;entryX=1;entryY=0.5;entryDx=0;entryDy=0;entryPerimeter=0;" edge="1" parent="1" source="99I_oRyhk_x6yAJ0Ye9t-47" target="wruG9pDz-TTGHJWA2XI3-8">
          <mxGeometry relative="1" as="geometry">
            <Array as="points">
              <mxPoint x="1200" y="1039" />
              <mxPoint x="1200" y="607" />
            </Array>
          </mxGeometry>
        </mxCell>
        <mxCell id="99I_oRyhk_x6yAJ0Ye9t-54" style="edgeStyle=orthogonalEdgeStyle;rounded=0;orthogonalLoop=1;jettySize=auto;html=1;exitX=1;exitY=0.75;exitDx=0;exitDy=0;entryX=1;entryY=0.5;entryDx=0;entryDy=0;entryPerimeter=0;" edge="1" parent="1" source="99I_oRyhk_x6yAJ0Ye9t-47" target="wruG9pDz-TTGHJWA2XI3-40">
          <mxGeometry relative="1" as="geometry">
            <Array as="points">
              <mxPoint x="1200" y="1039" />
              <mxPoint x="1200" y="335" />
            </Array>
          </mxGeometry>
        </mxCell>
      </root>
    </mxGraphModel>
  </diagram>
</mxfile>
